<mxfile host="app.diagrams.net" modified="2021-07-22T23:37:39.659Z" agent="5.0 (Macintosh; Intel Mac OS X 10_15_7) AppleWebKit/537.36 (KHTML, like Gecko) Chrome/92.0.4515.107 Safari/537.36" etag="BgisV-JCmh_ErEFkGN_1" version="14.9.2" type="github">
  <diagram id="UcVoIKLS8l9HH_rHvecV" name="Page-1">
    <mxGraphModel dx="1226" dy="1129" grid="1" gridSize="10" guides="1" tooltips="1" connect="1" arrows="1" fold="1" page="1" pageScale="1" pageWidth="850" pageHeight="1100" math="0" shadow="0">
      <root>
        <mxCell id="0" />
        <mxCell id="1" parent="0" />
        <mxCell id="7vNuGEFGMuKbEo3pkOq6-22" style="edgeStyle=orthogonalEdgeStyle;rounded=0;orthogonalLoop=1;jettySize=auto;html=1;exitX=1;exitY=0.5;exitDx=0;exitDy=0;entryX=0;entryY=0.5;entryDx=0;entryDy=0;" parent="1" source="7vNuGEFGMuKbEo3pkOq6-3" target="7vNuGEFGMuKbEo3pkOq6-17" edge="1">
          <mxGeometry relative="1" as="geometry" />
        </mxCell>
        <mxCell id="7vNuGEFGMuKbEo3pkOq6-3" value="&lt;a href=&quot;https://zd60ab5ba548e78e3p-tp.appspot.com/admin/airflow/tree?dag_id=campaign_spend_v20210609&quot;&gt;campaign_spend&lt;/a&gt;" style="rounded=0;whiteSpace=wrap;html=1;" parent="1" vertex="1">
          <mxGeometry x="660" y="350" width="120" height="60" as="geometry" />
        </mxCell>
        <mxCell id="7vNuGEFGMuKbEo3pkOq6-5" style="edgeStyle=orthogonalEdgeStyle;rounded=0;orthogonalLoop=1;jettySize=auto;html=1;exitX=1;exitY=0.5;exitDx=0;exitDy=0;" parent="1" source="7vNuGEFGMuKbEo3pkOq6-4" target="7vNuGEFGMuKbEo3pkOq6-3" edge="1">
          <mxGeometry relative="1" as="geometry" />
        </mxCell>
        <mxCell id="7vNuGEFGMuKbEo3pkOq6-4" value="&lt;a href=&quot;https://zd60ab5ba548e78e3p-tp.appspot.com/admin/airflow/graph?dag_id=hardware_loss_v20210609&amp;amp;execution_date=&quot;&gt;merchant_hardware&lt;br&gt;loss&lt;/a&gt;" style="rounded=0;whiteSpace=wrap;html=1;" parent="1" vertex="1">
          <mxGeometry x="480" y="350" width="120" height="60" as="geometry" />
        </mxCell>
        <mxCell id="7vNuGEFGMuKbEo3pkOq6-7" style="edgeStyle=orthogonalEdgeStyle;rounded=0;orthogonalLoop=1;jettySize=auto;html=1;exitX=1;exitY=0.5;exitDx=0;exitDy=0;" parent="1" source="7vNuGEFGMuKbEo3pkOq6-6" target="7vNuGEFGMuKbEo3pkOq6-4" edge="1">
          <mxGeometry relative="1" as="geometry" />
        </mxCell>
        <mxCell id="7vNuGEFGMuKbEo3pkOq6-15" style="edgeStyle=orthogonalEdgeStyle;rounded=0;orthogonalLoop=1;jettySize=auto;html=1;exitX=0.5;exitY=1;exitDx=0;exitDy=0;entryX=0;entryY=0.5;entryDx=0;entryDy=0;" parent="1" source="7vNuGEFGMuKbEo3pkOq6-6" target="7vNuGEFGMuKbEo3pkOq6-12" edge="1">
          <mxGeometry relative="1" as="geometry" />
        </mxCell>
        <mxCell id="7vNuGEFGMuKbEo3pkOq6-6" value="&lt;a href=&quot;https://zd60ab5ba548e78e3p-tp.appspot.com/admin/airflow/graph?dag_id=fact_unified_attribution_marketing_v20210609&amp;amp;execution_date=&quot;&gt;fact_ua_marketing&lt;/a&gt;" style="rounded=0;whiteSpace=wrap;html=1;" parent="1" vertex="1">
          <mxGeometry x="230" y="350" width="120" height="60" as="geometry" />
        </mxCell>
        <mxCell id="7vNuGEFGMuKbEo3pkOq6-16" style="edgeStyle=orthogonalEdgeStyle;rounded=0;orthogonalLoop=1;jettySize=auto;html=1;exitX=1;exitY=0.5;exitDx=0;exitDy=0;entryX=0;entryY=0.5;entryDx=0;entryDy=0;" parent="1" source="7vNuGEFGMuKbEo3pkOq6-8" target="7vNuGEFGMuKbEo3pkOq6-6" edge="1">
          <mxGeometry relative="1" as="geometry" />
        </mxCell>
        <mxCell id="7vNuGEFGMuKbEo3pkOq6-8" value="&lt;a href=&quot;https://zd60ab5ba548e78e3p-tp.appspot.com/admin/airflow/graph?dag_id=unified_attribution_v20210609&amp;amp;execution_date=&quot;&gt;unified_att&lt;/a&gt;" style="rounded=0;whiteSpace=wrap;html=1;" parent="1" vertex="1">
          <mxGeometry x="40" y="350" width="120" height="60" as="geometry" />
        </mxCell>
        <mxCell id="7vNuGEFGMuKbEo3pkOq6-19" style="edgeStyle=orthogonalEdgeStyle;rounded=0;orthogonalLoop=1;jettySize=auto;html=1;exitX=1;exitY=0.5;exitDx=0;exitDy=0;" parent="1" source="7vNuGEFGMuKbEo3pkOq6-12" target="7vNuGEFGMuKbEo3pkOq6-18" edge="1">
          <mxGeometry relative="1" as="geometry" />
        </mxCell>
        <mxCell id="kFAPNz3zif7XraSy1g6j-8" style="edgeStyle=orthogonalEdgeStyle;rounded=0;orthogonalLoop=1;jettySize=auto;html=1;exitX=1;exitY=0.5;exitDx=0;exitDy=0;entryX=0;entryY=0.5;entryDx=0;entryDy=0;" parent="1" source="7vNuGEFGMuKbEo3pkOq6-12" target="VukCH8sbl8D__4rJ6l_O-2" edge="1">
          <mxGeometry relative="1" as="geometry" />
        </mxCell>
        <mxCell id="7vNuGEFGMuKbEo3pkOq6-12" value="&lt;a href=&quot;https://zd60ab5ba548e78e3p-tp.appspot.com/admin/airflow/graph?dag_id=merchant_performance_ua_v20210609&amp;amp;root=&amp;amp;execution_date=2021-07-15T00%3A00%3A00%2B00%3A00&quot;&gt;merchant_perf_ua&lt;/a&gt;" style="rounded=0;whiteSpace=wrap;html=1;" parent="1" vertex="1">
          <mxGeometry x="310" y="480" width="120" height="60" as="geometry" />
        </mxCell>
        <mxCell id="7vNuGEFGMuKbEo3pkOq6-17" value="&lt;a href=&quot;https://zd60ab5ba548e78e3p-tp.appspot.com/admin/airflow/graph?dag_id=marketing_measurement_v20210609&amp;amp;execution_date=&quot;&gt;marketing&lt;br&gt;measurement&lt;/a&gt;" style="rounded=0;whiteSpace=wrap;html=1;" parent="1" vertex="1">
          <mxGeometry x="840" y="350" width="120" height="60" as="geometry" />
        </mxCell>
        <mxCell id="7vNuGEFGMuKbEo3pkOq6-21" style="edgeStyle=orthogonalEdgeStyle;rounded=0;orthogonalLoop=1;jettySize=auto;html=1;exitX=1;exitY=0.5;exitDx=0;exitDy=0;entryX=0;entryY=0.5;entryDx=0;entryDy=0;" parent="1" source="7vNuGEFGMuKbEo3pkOq6-18" target="7vNuGEFGMuKbEo3pkOq6-3" edge="1">
          <mxGeometry relative="1" as="geometry" />
        </mxCell>
        <mxCell id="7vNuGEFGMuKbEo3pkOq6-18" value="&lt;a href=&quot;https://zd60ab5ba548e78e3p-tp.appspot.com/admin/airflow/graph?dag_id=direct_mail_matchback_cost_v20210609&amp;amp;execution_date=&quot;&gt;direct_mail&lt;br&gt;matchback_cost&lt;/a&gt;" style="rounded=0;whiteSpace=wrap;html=1;" parent="1" vertex="1">
          <mxGeometry x="480" y="480" width="120" height="60" as="geometry" />
        </mxCell>
        <mxCell id="7vNuGEFGMuKbEo3pkOq6-25" style="edgeStyle=orthogonalEdgeStyle;rounded=0;orthogonalLoop=1;jettySize=auto;html=1;exitX=0.5;exitY=1;exitDx=0;exitDy=0;entryX=0;entryY=0.5;entryDx=0;entryDy=0;" parent="1" source="7vNuGEFGMuKbEo3pkOq6-24" target="7vNuGEFGMuKbEo3pkOq6-17" edge="1">
          <mxGeometry relative="1" as="geometry" />
        </mxCell>
        <mxCell id="7vNuGEFGMuKbEo3pkOq6-24" value="&lt;a href=&quot;https://zd60ab5ba548e78e3p-tp.appspot.com/admin/airflow/tree?dag_id=marketing_verified_spend_v20210706&quot;&gt;verified_spend&lt;/a&gt;" style="rounded=0;whiteSpace=wrap;html=1;" parent="1" vertex="1">
          <mxGeometry x="750" y="190" width="120" height="60" as="geometry" />
        </mxCell>
        <mxCell id="kFAPNz3zif7XraSy1g6j-6" style="edgeStyle=orthogonalEdgeStyle;rounded=0;orthogonalLoop=1;jettySize=auto;html=1;exitX=0.5;exitY=0;exitDx=0;exitDy=0;entryX=0.5;entryY=1;entryDx=0;entryDy=0;" parent="1" source="VukCH8sbl8D__4rJ6l_O-1" target="VukCH8sbl8D__4rJ6l_O-5" edge="1">
          <mxGeometry relative="1" as="geometry" />
        </mxCell>
        <mxCell id="VukCH8sbl8D__4rJ6l_O-1" value="&lt;a href=&quot;https://zd60ab5ba548e78e3p-tp.appspot.com/admin/airflow/rendered?task_id=daglo_calibrated_product_npa_predictions&amp;amp;dag_id=merchant_performance_ua_v20210609&amp;amp;execution_date=2021-07-20T00%3A00%3A00%2B00%3A00&quot;&gt;daglo_calibrated&lt;br&gt;prod_npa_predictions&lt;/a&gt;&lt;br&gt;(inside merch_perf_ua)" style="rounded=0;whiteSpace=wrap;html=1;" parent="1" vertex="1">
          <mxGeometry x="305" y="700" width="130" height="60" as="geometry" />
        </mxCell>
        <mxCell id="VukCH8sbl8D__4rJ6l_O-4" style="edgeStyle=orthogonalEdgeStyle;rounded=0;orthogonalLoop=1;jettySize=auto;html=1;exitX=1;exitY=0.5;exitDx=0;exitDy=0;entryX=0.5;entryY=1;entryDx=0;entryDy=0;" parent="1" source="VukCH8sbl8D__4rJ6l_O-2" target="7vNuGEFGMuKbEo3pkOq6-17" edge="1">
          <mxGeometry relative="1" as="geometry" />
        </mxCell>
        <mxCell id="VukCH8sbl8D__4rJ6l_O-2" value="merch_prod&lt;br&gt;npa_perf" style="rounded=0;whiteSpace=wrap;html=1;" parent="1" vertex="1">
          <mxGeometry x="480" y="590" width="120" height="60" as="geometry" />
        </mxCell>
        <mxCell id="kFAPNz3zif7XraSy1g6j-7" style="edgeStyle=orthogonalEdgeStyle;rounded=0;orthogonalLoop=1;jettySize=auto;html=1;exitX=0.5;exitY=0;exitDx=0;exitDy=0;entryX=0.5;entryY=1;entryDx=0;entryDy=0;" parent="1" source="VukCH8sbl8D__4rJ6l_O-5" target="7vNuGEFGMuKbEo3pkOq6-12" edge="1">
          <mxGeometry relative="1" as="geometry" />
        </mxCell>
        <mxCell id="VukCH8sbl8D__4rJ6l_O-5" value="if predictions is not&lt;br&gt;complete by 1PM&lt;br&gt;mark as success" style="shape=process;whiteSpace=wrap;html=1;backgroundOutline=1;" parent="1" vertex="1">
          <mxGeometry x="305" y="590" width="130" height="60" as="geometry" />
        </mxCell>
        <mxCell id="kFAPNz3zif7XraSy1g6j-3" style="edgeStyle=orthogonalEdgeStyle;rounded=0;orthogonalLoop=1;jettySize=auto;html=1;exitX=0.5;exitY=1;exitDx=0;exitDy=0;entryX=0.5;entryY=0;entryDx=0;entryDy=0;" parent="1" source="kFAPNz3zif7XraSy1g6j-1" target="kFAPNz3zif7XraSy1g6j-2" edge="1">
          <mxGeometry relative="1" as="geometry" />
        </mxCell>
        <mxCell id="kFAPNz3zif7XraSy1g6j-1" value="daglo_vfact&lt;br&gt;touchpoints" style="rounded=0;whiteSpace=wrap;html=1;" parent="1" vertex="1">
          <mxGeometry x="40" y="150" width="120" height="60" as="geometry" />
        </mxCell>
        <mxCell id="kFAPNz3zif7XraSy1g6j-4" style="edgeStyle=orthogonalEdgeStyle;rounded=0;orthogonalLoop=1;jettySize=auto;html=1;exitX=0.5;exitY=1;exitDx=0;exitDy=0;" parent="1" source="kFAPNz3zif7XraSy1g6j-2" target="7vNuGEFGMuKbEo3pkOq6-8" edge="1">
          <mxGeometry relative="1" as="geometry" />
        </mxCell>
        <mxCell id="kFAPNz3zif7XraSy1g6j-2" value="Reach out to&amp;nbsp;&lt;br&gt;&lt;a href=&quot;https://square.slack.com/archives/C0FSHN9UH&quot;&gt;#buisness-intelligence&lt;br&gt;&lt;/a&gt;if not done by 12PM" style="shape=process;whiteSpace=wrap;html=1;backgroundOutline=1;" parent="1" vertex="1">
          <mxGeometry x="15" y="250" width="170" height="60" as="geometry" />
        </mxCell>
      </root>
    </mxGraphModel>
  </diagram>
</mxfile>
